<svg xmlns="http://www.w3.org/2000/svg" data-name="Layer 1" viewBox="0 0 512 512"><path fill="#00efd1" d="M269.53,133.08l.12,11.89a29.406,29.406,0,0,0,29.4,29.11h.31a29.4,29.4,0,0,0,29.11-29.71l-.26-25.6-.02-1.87a21.756,21.756,0,0,0-21.97-21.54l-31.43.32a5.508,5.508,0,0,0-2.4.57,5.586,5.586,0,0,0-3.18,5.13l.24,24.17Zm177.99-8.27V376.58a30,30,0,0,1-30,30H184.48a30,30,0,0,1-30-30V65.15a30,30,0,0,1,30-30h176l.31.32-.31.3v72.74a16.3,16.3,0,0,0,16.3,16.3h70.45l.15-.14ZM366.17,256.15l-.47-36.22a30.563,30.563,0,0,0-30.74-33.33l-7.43.08-11.34,41.58L303.77,206.6h.01l5.69-18.83-18.78.19,6.07,18.71-11.06,21.9h-.01L274.46,187.3h-8.37a30.575,30.575,0,0,0-30.07,33.95l.47,36.23Z"/><path fill="#00acea" d="M360.79,35.47l86.59,89.2-.15.14H376.78a16.3,16.3,0,0,1-16.3-16.3V35.77Z"/><path fill="#fedb41" d="M365.7,219.93l.47,36.22-129.68,1.33-.47-36.23a30.575,30.575,0,0,1,30.07-33.95h8.37l11.23,41.27h.01l11.06-21.9,7.01-.07,12.42,21.66,11.34-41.58,7.43-.08A30.563,30.563,0,0,1,365.7,219.93Z"/><path fill="#00acea" d="M357.52,406.58v40.27a30,30,0,0,1-30,30H94.48a30,30,0,0,1-30-30V135.39a30,30,0,0,1,30-30h60V376.58a30,30,0,0,0,30,30Z"/><path fill="#fedb41" d="M328.47,144.37a29.4,29.4,0,0,1-29.11,29.71h-.31a29.406,29.406,0,0,1-29.4-29.11l-.12-11.89c.74-1.52,6.1-15.95,22.9-17.54l.07-.11c9.61,5.94,21.99,9.49,35.65,3.34h.06Z"/><path fill="#4b5d63" d="M328.19,116.9l.02,1.87h-.06c-13.66,6.15-26.04,2.6-35.65-3.34a74.1,74.1,0,0,1-20.11-19.18,5.508,5.508,0,0,1,2.4-.57l31.43-.32A21.756,21.756,0,0,1,328.19,116.9Z"/><path fill="#4b5d63" d="M292.5,115.43l-.07.11c-16.8,1.59-22.16,16.02-22.9,17.54l-.08-7.53-.24-24.17a5.586,5.586,0,0,1,3.18-5.13A74.1,74.1,0,0,0,292.5,115.43Z"/><path fill="#083863" d="M365.82,30.6l-.31-.32a7,7,0,0,0-5.03-2.131h-176a37.042,37.042,0,0,0-37,37v33.24h-53a37.042,37.042,0,0,0-37,37v311.46a37.042,37.042,0,0,0,37,37H327.52a37.042,37.042,0,0,0,37-37v-33.27h53a37.042,37.042,0,0,0,37-37V124.81a7,7,0,0,0-2.05-4.95Zm1.66,21.81,63.485,65.4H376.78a9.311,9.311,0,0,1-9.3-9.3ZM350.52,446.85a23.026,23.026,0,0,1-23,23H94.48a23.026,23.026,0,0,1-23-23V135.39a23.026,23.026,0,0,1,23-23h53V376.58a37.042,37.042,0,0,0,37,37H350.52v33.27Zm67-47.27H184.48a23.026,23.026,0,0,1-23-23V65.15a23.026,23.026,0,0,1,23-23h169v66.36a23.326,23.326,0,0,0,23.3,23.3h63.74V376.58A23.026,23.026,0,0,1,417.52,399.58Z"/><path fill="#083863" d="M392.3 339.3H204.68a7 7 0 0 0 0 14H392.3a7 7 0 0 0 0-14zM204.68 309.36H317a7 7 0 0 0 0-14H204.68a7 7 0 0 0 0 14zM230.491 257.558a6 6 0 0 0 6 5.922h.063l129.68-1.33a6 6 0 0 0 5.938-6.078l-.466-35.923A36.563 36.563 0 0 0 334.9 180.6l-7.43.08a6 6 0 0 0-5.724 4.421l-7.537 27.634-3.936-6.865 4.945-16.365a6 6 0 0 0-5.8-7.735l-18.78.19a6 6 0 0 0-5.647 7.851l5.307 16.359-2.909 5.761-7.131-26.208a6 6 0 0 0-5.79-4.425h-8.433a36.575 36.575 0 0 0-36 40.308zm70.873-63.7l-1.184 3.917-1.263-3.893zm-53.355 7.73A24.262 24.262 0 0 1 266.09 193.3h3.785L279.9 230.145a6.008 6.008 0 0 0 11.156 1.13l9.34-18.5 10.588 18.465a6 6 0 0 0 10.993-1.406l10.147-37.208 2.894-.031a24.76 24.76 0 0 1 18.3 7.909 24.28 24.28 0 0 1 6.406 18.878 5.86 5.86 0 0 0-.024.621l.392 30.2-117.68 1.207-.393-30.247c0-.2-.015-.391-.036-.585A24.287 24.287 0 0 1 248.009 201.583zM299.05 180.08h.369a35.4 35.4 0 0 0 35.051-35.77l-.28-27.469a27.792 27.792 0 0 0-28.03-27.479l-31.438.32a11.655 11.655 0 0 0-11.511 11.759l.44 43.59A35.514 35.514 0 0 0 299.05 180.08zm-19.483-66.908a31.135 31.135 0 0 0-4.211 2.653l-.068-6.763C276.575 110.392 278 111.776 279.567 113.172zm36.217 47.887a23.217 23.217 0 0 1-16.424 7.021h-.31a23.477 23.477 0 0 1-23.4-23.17l-.106-10.529c3.386-7.139 8.823-11.485 15.834-12.653a45.227 45.227 0 0 0 22.3 6.239 39.812 39.812 0 0 0 8.613-.947l.178 17.414A23.253 23.253 0 0 1 315.784 161.059zm-9.5-59.7A15.774 15.774 0 0 1 321.985 114.7c-8.545 2.621-17.384 1.159-26.331-4.371a60.955 60.955 0 0 1-10.889-8.747z"/></svg>