<?xml version="1.0" encoding="UTF-8" standalone="no"?><!-- Generator: Gravit.io --><svg xmlns="http://www.w3.org/2000/svg" xmlns:xlink="http://www.w3.org/1999/xlink" style="isolation:isolate" viewBox="0 0 552.8 205.3" width="552.8pt" height="205.3pt"><defs><clipPath id="_clipPath_kQvJ2lfdK80EdXeyoplbicxMfYJhgQsP"><rect width="552.8" height="205.3"/></clipPath></defs><g clip-path="url(#_clipPath_kQvJ2lfdK80EdXeyoplbicxMfYJhgQsP)"><path d=" M 285.4 68 L 311.7 66.3 C 312.3 70.6 313.4 73.8 315.2 76.1 C 318.1 79.7 322.1 81.5 327.4 81.5 C 331.3 81.5 334.4 80.6 336.5 78.7 C 338.5 77.2 339.7 74.8 339.7 72.3 C 339.7 69.9 338.6 67.6 336.7 66.1 C 334.7 64.3 330 62.5 322.6 60.9 C 310.5 58.2 301.8 54.6 296.7 50 C 291.6 45.7 288.7 39.4 288.9 32.7 C 288.9 28.1 290.3 23.5 292.9 19.7 C 295.9 15.4 300 12 304.9 10.1 C 310.2 7.8 317.6 6.6 326.9 6.6 C 338.3 6.6 347 8.7 353 13 C 359 17.2 362.6 24 363.7 33.3 L 337.7 34.8 C 337 30.8 335.6 27.9 333.3 26 C 331 24.1 328 23.2 324.1 23.2 C 320.9 23.2 318.5 23.9 316.9 25.2 C 315.4 26.4 314.4 28.2 314.5 30.2 C 314.5 31.7 315.3 33.1 316.5 34 C 317.8 35.2 320.9 36.3 325.8 37.3 C 337.9 39.9 346.5 42.5 351.8 45.2 C 357.1 47.9 360.9 51.2 363.2 55.1 C 365.6 59.1 366.8 63.7 366.7 68.4 C 366.7 74 365.1 79.6 361.9 84.3 C 358.6 89.2 354 93 348.6 95.3 C 342.9 97.8 335.7 99.1 327.1 99.1 C 311.9 99.1 301.4 96.2 295.5 90.3 C 289.6 84.4 286.1 77 285.4 68 Z  M 6.3 97.6 L 6.3 8.2 L 52.4 8.2 C 60.9 8.2 67.5 8.9 72 10.4 C 76.4 11.8 80.3 14.7 82.9 18.6 C 85.8 22.9 87.2 27.9 87.1 33.1 C 87.4 41.9 82.9 50.3 75.2 54.7 C 72.2 56.4 68.9 57.6 65.5 58.2 C 68 58.9 70.5 60.1 72.7 61.5 C 74.4 62.9 75.8 64.5 77.1 66.2 C 78.6 67.9 79.9 69.8 81 71.8 L 94.4 97.7 L 63 97.7 L 48.2 70.2 C 46.3 66.7 44.7 64.4 43.2 63.3 C 41.2 61.9 38.8 61.2 36.4 61.2 L 34 61.2 L 34 97.5 L 6.3 97.5 L 6.3 97.6 Z  M 34 44.4 L 45.7 44.4 C 48.2 44.2 50.6 43.8 53 43.2 C 54.8 42.9 56.4 41.9 57.5 40.4 C 60.2 36.8 59.8 31.7 56.5 28.6 C 54.7 27.1 51.2 26.3 46.2 26.3 L 34 26.3 L 34 44.4 L 34 44.4 Z  M 0 174.2 L 26.3 172.5 C 26.9 176.8 28 180 29.8 182.3 C 32.6 185.9 36.7 187.8 42 187.8 C 45.9 187.8 49 186.9 51.1 185 C 53.1 183.4 54.3 181.1 54.3 178.6 C 54.3 176.2 53.2 173.9 51.3 172.4 C 49.3 170.6 44.6 168.8 37.1 167.2 C 25 164.5 16.3 160.9 11.2 156.3 C 6.1 152 3.2 145.7 3.4 139 C 3.4 134.4 4.8 129.8 7.4 126 C 10.4 121.7 14.5 118.3 19.4 116.4 C 24.7 114.1 32.1 112.9 41.4 112.9 C 52.8 112.9 61.5 115 67.5 119.3 C 73.5 123.6 77 130.3 78.1 139.6 L 52.1 141.1 C 51.4 137.1 50 134.2 47.7 132.3 C 45.5 130.4 42.4 129.5 38.5 129.6 C 35.3 129.6 32.9 130.3 31.3 131.7 C 29.7 132.9 28.8 134.7 28.9 136.7 C 28.9 138.2 29.7 139.6 30.9 140.5 C 32.2 141.7 35.3 142.8 40.2 143.8 C 52.3 146.4 60.9 149 66.2 151.7 C 71.5 154.4 75.3 157.7 77.6 161.6 C 80 165.6 81.2 170.2 81.2 174.8 C 81.2 180.4 79.5 185.9 76.4 190.6 C 73.1 195.5 68.5 199.3 63.1 201.6 C 57.4 204.1 50.2 205.4 41.6 205.4 C 26.4 205.4 15.9 202.5 10 196.6 C 4.1 190.6 0.8 183.2 0 174.2 L 0 174.2 Z " fill="rgb(255,255,255)"/><path d=" M 133 167.2 L 157.2 174.5 C 155.9 180.6 153.2 186.4 149.5 191.5 C 146.1 196 141.6 199.5 136.5 201.8 C 131.3 204.1 124.7 205.3 116.7 205.3 C 107 205.3 99 203.9 92.9 201.1 C 86.7 198.3 81.4 193.3 76.9 186.2 C 72.4 179.1 70.2 170 70.2 158.9 C 70.2 144.1 74.1 132.7 82 124.8 C 89.9 116.9 101 112.9 115.4 112.9 C 126.7 112.9 135.5 115.2 142 119.7 C 148.4 124.3 153.2 131.3 156.4 140.7 L 132 146.1 C 131.4 144 130.5 141.9 129.3 140.1 C 127.8 138 125.9 136.4 123.6 135.2 C 121.3 134 118.7 133.5 116.1 133.5 C 109.8 133.5 105 136 101.7 141.1 C 99.2 144.8 97.9 150.7 97.9 158.7 C 97.9 168.6 99.4 175.4 102.4 179.1 C 105.4 182.8 109.6 184.6 115.1 184.6 C 120.4 184.6 124.4 183.1 127.1 180.2 C 129.8 177.1 131.8 172.8 133 167.2 Z  M 189.5 114.4 L 217.1 114.4 L 217.1 145.7 L 247.3 145.7 L 247.3 114.4 L 275.1 114.4 L 275.1 203.8 L 247.3 203.8 L 247.3 167.6 L 217.1 167.6 L 217.1 203.8 L 189.5 203.8 L 189.5 114.4 L 189.5 114.4 Z " fill="rgb(255,255,255)"/><path d=" M 271.3 159.1 C 271.3 144.5 275.4 133.1 283.5 125 C 291.6 116.9 303 112.8 317.5 112.8 C 332.4 112.8 343.8 116.8 351.9 124.8 C 360 132.8 364 144 364 158.4 C 364 168.9 362.2 177.4 358.7 184.1 C 355.3 190.7 350 196.1 343.5 199.7 C 336.8 203.4 328.5 205.3 318.6 205.3 C 308.5 205.3 300.2 203.7 293.6 200.5 C 286.8 197.1 281.2 191.8 277.5 185.3 C 273.4 178.3 271.3 169.6 271.3 159.1 Z  M 298.9 159.2 C 298.9 168.2 300.6 174.7 303.9 178.7 C 307.2 182.6 311.8 184.6 317.6 184.6 C 323.5 184.6 328.1 182.7 331.4 178.8 C 334.7 174.9 336.3 168 336.3 158 C 336.3 149.6 334.6 143.4 331.2 139.6 C 327.8 135.7 323.2 133.8 317.4 133.8 C 312.3 133.6 307.4 135.8 304 139.7 C 300.6 143.6 298.9 150.1 298.9 159.2 L 298.9 159.2 Z  M 392.3 159.1 C 392.3 144.5 396.4 133.1 404.5 125 C 412.6 116.9 424 112.8 438.5 112.8 C 453.4 112.8 464.9 116.8 472.9 124.8 C 480.9 132.8 485 144 485 158.4 C 485 168.9 483.2 177.4 479.7 184.1 C 476.3 190.7 471 196.1 464.5 199.7 C 457.8 203.4 449.5 205.3 439.6 205.3 C 429.5 205.3 421.2 203.7 414.6 200.5 C 407.8 197.1 402.2 191.8 398.5 185.3 C 394.4 178.3 392.3 169.6 392.3 159.1 L 392.3 159.1 Z  M 419.9 159.2 C 419.9 168.2 421.6 174.7 424.9 178.7 C 428.2 182.6 432.8 184.6 438.6 184.6 C 444.5 184.6 449.1 182.7 452.4 178.8 C 455.7 174.9 457.3 168 457.3 158 C 457.3 149.6 455.6 143.4 452.2 139.6 C 448.8 135.7 444.2 133.8 438.4 133.8 C 433.3 133.6 428.3 135.8 425 139.7 C 421.6 143.6 419.9 150.1 419.9 159.2 L 419.9 159.2 Z " fill="rgb(255,255,255)"/><path d=" M 482.1 114.4 L 509.7 114.4 L 509.7 181.8 L 552.8 181.8 L 552.8 203.8 L 482 203.8 L 482 114.4 L 482.1 114.4 Z " fill="rgb(255,255,255)"/><path d=" M 370.191 105.787 C 352.985 82.955 361.561 47.429 389.329 26.503 C 417.098 5.577 453.612 7.125 470.817 29.957 C 488.023 52.789 479.447 88.315 451.679 109.241 C 423.91 130.167 387.396 128.619 370.191 105.787 Z " fill="none" vector-effect="non-scaling-stroke" stroke-width="1" stroke="rgb(255,255,255)" stroke-linejoin="miter" stroke-linecap="butt" stroke-miterlimit="4"/><path d=" M 392.404 61.272 L 402.404 54.272 L 414.704 71.772 C 416.804 74.572 418.404 77.572 419.604 80.872 C 420.304 83.372 420.104 86.072 419.104 88.472 C 417.804 91.472 415.704 93.972 412.904 95.772 C 409.604 98.072 406.804 99.372 404.404 99.772 C 402.104 100.172 399.704 99.772 397.504 98.772 C 395.104 97.572 393.004 95.872 391.404 93.672 L 400.004 85.672 C 400.704 86.772 401.604 87.772 402.604 88.572 C 403.304 89.072 404.104 89.372 405.004 89.372 C 405.704 89.372 406.404 89.072 406.904 88.672 C 407.904 88.072 408.604 86.872 408.504 85.672 C 408.204 83.972 407.504 82.272 406.404 80.972 L 392.404 61.272 L 392.404 61.272 Z  M 422.404 72.372 L 431.504 65.172 C 432.504 66.372 433.804 67.272 435.204 67.772 C 437.204 68.372 439.304 67.972 441.004 66.672 C 442.204 65.872 443.204 64.772 443.604 63.372 C 444.204 61.572 443.204 59.572 441.404 58.972 C 441.104 58.872 440.804 58.772 440.504 58.772 C 439.304 58.672 437.204 59.172 434.104 60.472 C 429.004 62.572 425.004 63.372 422.004 63.072 C 419.104 62.772 416.404 61.272 414.804 58.772 C 413.604 57.072 413.004 55.072 412.904 53.072 C 412.904 50.772 413.504 48.472 414.804 46.572 C 416.704 43.872 419.004 41.572 421.804 39.772 C 426.004 36.872 429.704 35.472 432.904 35.472 C 436.104 35.472 439.104 36.972 441.904 40.072 L 432.904 47.172 C 431.104 44.872 427.704 44.372 425.404 46.172 L 425.104 46.472 C 424.104 47.072 423.404 47.972 423.004 49.072 C 422.704 49.872 422.904 50.772 423.404 51.472 C 423.804 51.972 424.404 52.372 425.104 52.372 C 425.904 52.472 427.304 52.072 429.304 51.172 C 434.304 49.072 438.104 47.872 440.704 47.472 C 442.904 47.072 445.204 47.272 447.304 48.172 C 449.204 48.972 450.804 50.372 451.904 52.072 C 453.304 54.072 454.104 56.472 454.204 58.972 C 454.304 61.572 453.604 64.072 452.204 66.272 C 450.404 68.972 448.104 71.272 445.404 73.072 C 439.904 76.872 435.404 78.472 431.804 77.872 C 427.904 77.272 424.704 75.272 422.404 72.372 L 422.404 72.372 Z " fill="rgb(255,255,255)"/></g></svg>